<?xml version="1.0" standalone="no"?>
<!DOCTYPE svg PUBLIC "-//W3C//DTD SVG 20010904//EN"
 "http://www.w3.org/TR/2001/REC-SVG-20010904/DTD/svg10.dtd">
<svg version="1.0" xmlns="http://www.w3.org/2000/svg"
 width="406.000000pt" height="142.000000pt" viewBox="0 0 406.000000 142.000000"
 preserveAspectRatio="xMidYMid meet">

<g transform="translate(0.000000,142.000000) scale(0.100000,-0.100000)"
fill="#000000" stroke="none">
<path d="M2695 1125 c-30 -30 -32 -64 -4 -99 14 -18 30 -26 50 -26 40 0 72 18
65 36 -3 9 -1 12 4 9 6 -4 10 9 10 30 0 21 -4 34 -10 30 -5 -3 -7 0 -4 9 7 18
-24 36 -61 36 -14 0 -37 -11 -50 -25z m-8 -57 c-3 -8 -6 -5 -6 6 -1 11 2 17 5
13 3 -3 4 -12 1 -19z"/>
<path d="M2592 1133 c-6 -2 -9 -10 -6 -15 4 -6 2 -8 -4 -5 -15 10 -43 -3 -35
-16 3 -6 1 -7 -5 -3 -6 4 -30 1 -52 -5 -38 -12 -39 -13 -23 -31 9 -11 18 -42
21 -74 4 -54 4 -56 -16 -45 -29 15 -108 14 -140 -3 -38 -20 -65 -52 -56 -67 5
-8 3 -10 -6 -4 -10 6 -12 4 -7 -9 4 -9 3 -15 -2 -11 -9 5 -31 -77 -31 -115 0
-38 22 -120 31 -115 5 4 6 -1 3 -10 -16 -41 65 -101 122 -90 35 6 46 19 69 86
14 38 13 39 -5 29 -29 -15 -58 -12 -79 9 -11 11 -21 18 -23 16 -1 -2 -3 27 -3
65 0 37 3 66 6 64 3 -2 11 8 17 21 14 31 67 58 99 50 24 -6 24 -8 23 -98 -1
-51 -1 -125 -1 -164 l1 -73 64 0 64 0 -10 43 c-5 23 -7 163 -6 310 2 147 3
267 3 266 0 0 -6 -3 -13 -6z m-272 -217 c0 -2 -8 -10 -17 -17 -16 -13 -17 -12
-4 4 13 16 21 21 21 13z m107 -312 c-3 -3 -12 -4 -19 -1 -8 3 -5 6 6 6 11 1
17 -2 13 -5z m173 -59 c0 -12 -12 -15 -52 -13 l-53 2 48 3 c26 2 47 8 47 14 0
5 2 9 5 9 3 0 5 -7 5 -15z"/>
<path d="M830 1099 c0 -5 3 -8 8 -6 4 3 6 -45 5 -106 -2 -62 -4 -192 -5 -290
l-3 -177 78 0 c74 0 77 1 67 19 -5 11 -10 60 -10 109 0 120 7 127 136 128 51
0 91 -3 88 -8 -3 -4 0 -8 5 -8 7 0 11 24 11 60 0 48 -4 61 -19 70 -42 22 -161
4 -145 -22 4 -7 3 -8 -5 -4 -16 10 -43 -13 -37 -31 3 -8 1 -11 -4 -8 -6 3 -10
1 -10 -4 0 -6 -4 -11 -10 -11 -6 0 -10 40 -10 100 l0 100 98 0 c90 0 142 -7
185 -25 15 -6 17 0 17 59 l0 66 -220 0 c-148 0 -220 -3 -220 -11z m27 -411
c-1 -73 -3 -16 -3 127 0 143 2 203 3 133 2 -70 2 -187 0 -260z m100 169 c-2
-23 -3 -1 -3 48 0 50 1 68 3 42 2 -26 2 -67 0 -90z m0 -239 c-2 -24 -4 -7 -4
37 0 44 2 63 4 43 2 -21 2 -57 0 -80z m-20 -85 c-20 -2 -52 -2 -70 0 -17 2 0
4 38 4 39 0 53 -2 32 -4z"/>
<path d="M1425 936 c-67 -29 -115 -112 -115 -201 0 -51 18 -117 30 -110 6 4 7
-1 3 -11 -4 -12 -3 -15 5 -10 8 4 10 2 6 -7 -8 -21 52 -63 110 -78 37 -9 60
-9 99 0 58 13 121 56 113 77 -3 8 0 13 6 11 16 -3 36 61 37 118 1 59 -12 113
-35 140 -8 11 -12 13 -8 5 4 -9 3 -12 -2 -7 -5 5 -9 16 -9 25 0 9 -8 17 -17
17 -9 0 -20 4 -25 9 -5 5 -2 6 7 2 8 -4 6 0 -5 9 -12 10 -29 14 -45 10 -19 -4
-21 -3 -10 5 23 15 -109 12 -145 -4z m-25 -29 c0 -2 -10 -12 -22 -23 l-23 -19
19 23 c18 21 26 27 26 19z m167 -81 c26 -22 28 -30 29 -100 1 -42 -2 -74 -6
-71 -4 2 -15 -4 -25 -15 -11 -12 -31 -20 -50 -20 -19 0 -39 8 -50 20 -10 11
-20 18 -24 16 -3 -2 -7 22 -9 54 -6 117 64 177 135 116z m140 -68 c-3 -8 -6
-5 -6 6 -1 11 2 17 5 13 3 -3 4 -12 1 -19z m-380 -40 c-2 -13 -4 -5 -4 17 -1
22 1 32 4 23 2 -10 2 -28 0 -40z m90 5 c-3 -10 -5 -4 -5 12 0 17 2 24 5 18 2
-7 2 -21 0 -30z"/>
<path d="M1885 936 c-49 -21 -92 -78 -105 -139 -14 -62 -5 -161 12 -136 7 10
8 8 3 -8 -7 -25 11 -67 25 -58 6 3 7 -1 4 -9 -6 -16 28 -40 41 -28 5 4 5 2 2
-4 -6 -11 17 -24 71 -39 31 -9 114 3 107 16 -3 5 1 6 9 3 17 -7 68 24 60 37
-3 5 0 8 8 7 7 -2 12 5 12 14 -1 10 3 16 9 15 17 -3 36 62 36 125 1 59 -24
142 -40 132 -5 -3 -6 1 -3 9 7 18 -51 61 -67 51 -7 -4 -9 -3 -6 3 4 6 0 14 -9
17 -28 11 -138 6 -169 -8z m-25 -29 c0 -2 -10 -12 -22 -23 l-23 -19 19 23 c18
21 26 27 26 19z m171 -86 c24 -25 29 -37 29 -81 0 -55 -19 -104 -45 -114 -32
-12 -72 -6 -90 14 -10 11 -20 18 -24 16 -3 -2 -7 22 -9 54 -6 120 69 180 139
111z m-244 -98 c-3 -10 -5 -4 -5 12 0 17 2 24 5 18 2 -7 2 -21 0 -30z m90 5
c-3 -8 -6 -5 -6 6 -1 11 2 17 5 13 3 -3 4 -12 1 -19z"/>
<path d="M2770 935 c-14 -8 -47 -22 -73 -31 -47 -16 -48 -16 -30 -36 15 -17
19 -42 21 -155 2 -75 -1 -147 -7 -164 l-10 -29 75 0 c58 0 73 3 67 13 -4 6
-10 103 -13 214 l-5 201 -25 -13z m30 -397 c0 -5 -25 -8 -55 -8 -30 0 -55 3
-55 8 0 4 25 7 55 7 30 0 55 -3 55 -7z"/>
<path d="M2985 936 c-41 -18 -89 -71 -80 -87 5 -7 4 -10 -3 -5 -15 9 -32 -56
-31 -119 1 -55 21 -121 37 -118 5 1 9 -5 8 -15 0 -9 5 -16 11 -15 7 2 12 -2
10 -8 -5 -22 75 -54 138 -54 61 0 130 28 130 52 0 6 4 15 9 20 6 5 6 2 1 -7
-7 -12 -6 -13 7 -2 13 11 11 17 -20 52 -36 39 -36 40 -56 21 -21 -19 -101 -46
-91 -31 3 5 -4 11 -15 15 -11 4 -27 19 -35 35 -42 81 11 189 86 178 31 -4 38
-49 13 -86 -10 -15 -17 -31 -16 -35 1 -5 -2 -6 -8 -2 -5 3 -18 1 -27 -4 -33
-19 79 -13 117 7 47 23 74 78 62 124 -5 18 -14 32 -19 31 -6 -1 -10 5 -9 15 0
10 -6 16 -16 16 -10 -1 -16 3 -15 10 1 6 -8 11 -20 10 -12 0 -20 3 -17 8 8 13
-119 8 -151 -6z m-25 -29 c0 -2 -10 -12 -22 -23 l-23 -19 19 23 c18 21 26 27
26 19z m-73 -149 c-3 -8 -6 -5 -6 6 -1 11 2 17 5 13 3 -3 4 -12 1 -19z m0 -60
c-3 -8 -6 -5 -6 6 -1 11 2 17 5 13 3 -3 4 -12 1 -19z"/>
</g>
</svg>
